<svg width="64" height="64" viewBox="0 0 64 64" fill="none" xmlns="http://www.w3.org/2000/svg">
<path d="M43.9189 30.5187C43.9189 30.5187 66.6282 26.6404 58.1391 46.4629C60.5523 35.6898 51.8047 34.4832 51.8047 34.4832C49.8225 34.1385 47.7541 34.0523 45.7288 34.2677L43.9189 30.5187Z" fill="white"/>
<path d="M58.0963 46.4627C66.5854 26.6402 43.8762 30.5185 43.8762 30.5185L35.9904 14.1865H28.6649L8.97205 53.9608L8.84278 54.0901C-3.35211 41.2916 -2.8781 21.0382 9.92007 8.84299C22.7182 -3.35219 42.9712 -2.87817 55.1661 9.9203C66.887 22.2448 66.9732 41.5933 55.2523 53.9608L55.2092 53.9177C56.7174 51.0305 57.6223 48.5743 58.0963 46.4627Z" fill="url(#paint0_linear_1516_5190)"/>
<path d="M51.7614 34.4833C51.7614 34.4833 60.509 35.6899 58.0959 46.463C57.6219 48.5746 56.717 51.0308 55.2088 53.9611L45.6855 34.2679C47.7108 34.0524 49.7792 34.1386 51.7614 34.4833Z" fill="#29CFFF"/>
<path d="M55.2526 53.9607C53.0119 56.3739 50.3833 58.4423 47.4961 60.0368L36.5078 37.4132C39.3519 35.7326 42.4975 34.6553 45.7725 34.3105L55.2526 53.9607Z" fill="white"/>
<path d="M47.4529 59.9937C38.102 65.1648 26.8551 65.3371 17.375 60.4677C17.375 60.4677 24.2696 44.3942 36.4645 37.3701L47.4529 59.9937Z" fill="url(#paint1_linear_1516_5190)"/>
<path d="M36.4644 37.3703C24.2695 44.3944 17.3749 60.4679 17.3749 60.4679C14.1861 58.8303 11.299 56.6757 8.84277 54.0902L8.97204 53.9609L28.6649 14.1865H35.9904L43.8761 30.5186L45.686 34.2676C42.4541 34.6124 39.3085 35.6897 36.4644 37.3703ZM34.9131 31.8975L32.1122 24.5287L26.9412 36.8532L34.9131 31.8975Z" fill="white"/>
<path d="M32.1125 24.5288L34.9135 31.8976L26.8984 36.8533L32.1125 24.5288Z" fill="#5AB2F2"/>
<defs>
<linearGradient id="paint0_linear_1516_5190" x1="31.8877" y1="-3.66286" x2="31.9945" y2="54.0834" gradientUnits="userSpaceOnUse">
<stop stop-color="#2656FF"/>
<stop offset="0.869586" stop-color="#2DE0FE"/>
</linearGradient>
<linearGradient id="paint1_linear_1516_5190" x1="32.4139" y1="37.3701" x2="32.4139" y2="63.9998" gradientUnits="userSpaceOnUse">
<stop stop-color="#08C7FE"/>
<stop offset="1" stop-color="#2EE1FF"/>
</linearGradient>
</defs>
</svg>
